<svg width="1920" height="900" viewBox="0 0 1920 900" fill="none" xmlns="http://www.w3.org/2000/svg">
<path d="M1920 542.512L962.105 325.078" stroke="#D0D0D0" stroke-width="2"/>
<path d="M1919.34 562.127L962.107 325.078" stroke="#D0D0D0" stroke-width="2"/>
<path d="M1920 585.732L962.105 325.079" stroke="#D0D0D0" stroke-width="2"/>
<path d="M1920 614.989L962.105 325.078" stroke="#D0D0D0" stroke-width="2"/>
<path d="M1920 651.562L962.105 325.08" stroke="#D0D0D0" stroke-width="2"/>
<path d="M1920 698.107L962.105 325.08" stroke="#D0D0D0" stroke-width="2"/>
<path d="M1920 760.611L962.105 325.08" stroke="#D0D0D0" stroke-width="2"/>
<path d="M1920 848.384L962.105 325.081" stroke="#D0D0D0" stroke-width="2"/>
<path d="M1797.94 896.924L962.107 325.081" stroke="#D0D0D0" stroke-width="2"/>
<path d="M1585.67 896.924L962.108 325.081" stroke="#D0D0D0" stroke-width="2"/>
<path d="M1374.72 896.924L962.108 325.081" stroke="#D0D0D0" stroke-width="2"/>
<path d="M1163.77 896.924L962.108 325.081" stroke="#D0D0D0" stroke-width="2"/>
<path d="M954.145 896.924L962.106 325.081" stroke="#D0D0D0" stroke-width="2"/>
<path d="M4.21121 542.512L962.107 325.079" stroke="#D0D0D0" stroke-width="2"/>
<path d="M4.87186 562.127L962.104 325.078" stroke="#D0D0D0" stroke-width="2"/>
<path d="M4.21121 585.732L962.107 325.079" stroke="#D0D0D0" stroke-width="2"/>
<path d="M4.21121 614.988L962.107 325.078" stroke="#D0D0D0" stroke-width="2"/>
<path d="M4.21121 651.562L962.107 325.08" stroke="#D0D0D0" stroke-width="2"/>
<path d="M4.21121 698.107L962.107 325.08" stroke="#D0D0D0" stroke-width="2"/>
<path d="M4.21118 760.611L962.107 325.08" stroke="#D0D0D0" stroke-width="2"/>
<path d="M4.21118 848.383L962.107 325.081" stroke="#D0D0D0" stroke-width="2"/>
<path d="M126.267 896.923L962.104 325.08" stroke="#D0D0D0" stroke-width="2"/>
<path d="M338.548 896.923L962.108 325.08" stroke="#D0D0D0" stroke-width="2"/>
<path d="M549.492 896.924L962.103 325.081" stroke="#D0D0D0" stroke-width="2"/>
<path d="M760.441 896.924L962.103 325.081" stroke="#D0D0D0" stroke-width="2"/>
<path d="M1920 827.105L9.51616 827.105" stroke="#D0D0D0" stroke-width="2"/>
<path d="M1920 771.916L9.51616 771.916" stroke="#D0D0D0" stroke-width="2"/>
<path d="M1920 726.699L9.51616 726.699" stroke="#D0D0D0" stroke-width="2"/>
<path d="M1920 690.794L9.51616 690.794" stroke="#D0D0D0" stroke-width="2"/>
<path d="M1920 660.207L9.51616 660.207" stroke="#D0D0D0" stroke-width="2"/>
<path d="M1920 634.938L9.51616 634.937" stroke="#D0D0D0" stroke-width="2"/>
<path d="M1920 612.994L9.51616 612.994" stroke="#D0D0D0" stroke-width="2"/>
<path d="M1920 593.71L9.51616 593.71" stroke="#D0D0D0" stroke-width="2"/>
<path d="M1920 576.423L9.51616 576.423" stroke="#D0D0D0" stroke-width="2"/>
<path d="M1920 561.795L9.51616 561.795" stroke="#D0D0D0" stroke-width="2"/>
<path d="M1920 549.16L9.51616 549.16" stroke="#D0D0D0" stroke-width="2"/>
<path d="M1920 537.192L9.51616 537.192" stroke="#D0D0D0" stroke-width="2"/>
<rect x="1916" y="900.001" width="1916" height="900" transform="rotate(180 1916 900.001)" fill="url(#paint0_linear_1903_2)"/>
<defs>
<linearGradient id="paint0_linear_1903_2" x1="2873.3" y1="900.001" x2="2873.3" y2="1666.71" gradientUnits="userSpaceOnUse">
<stop stop-color="#121212" stop-opacity="0"/>
<stop offset="0.0001" stop-color="#121212" stop-opacity="0"/>
<stop offset="0.581361" stop-color="#02030B"/>
</linearGradient>
</defs>
</svg>
